<svg width="18" height="18" viewBox="0 0 18 18" fill="none" xmlns="http://www.w3.org/2000/svg">
<path d="M12.2 9.71999V13.08C12.2 15.88 11.08 17 8.28 17H4.92C2.12 17 1 15.88 1 13.08V9.71999C1 6.91999 2.12 5.79999 4.92 5.79999H8.28C11.08 5.79999 12.2 6.91999 12.2 9.71999Z" stroke="#0B6EFF" stroke-width="1.5" stroke-linecap="round" stroke-linejoin="round"/>
<path d="M17 4.92V8.28C17 11.08 15.88 12.2 13.08 12.2H12.2V9.72C12.2 6.92 11.08 5.8 8.27999 5.8H5.79999V4.92C5.79999 2.12 6.91999 1 9.71999 1H13.08C15.88 1 17 2.12 17 4.92Z" stroke="#0B6EFF" stroke-width="1.5" stroke-linecap="round" stroke-linejoin="round"/>
</svg>
